<?xml version="1.0" encoding="UTF-8" standalone="no"?>
<!-- Created with Inkscape (http://www.inkscape.org/) -->
<svg id="svg2985" xmlns:rdf="http://www.w3.org/1999/02/22-rdf-syntax-ns#" xmlns="http://www.w3.org/2000/svg" height="120" width="119" version="1.1" xmlns:cc="http://creativecommons.org/ns#" xmlns:dc="http://purl.org/dc/elements/1.1/">
 <metadata id="metadata2991">
  <rdf:RDF>
   <cc:Work rdf:about="">
    <dc:format>image/svg+xml</dc:format>
    <dc:type rdf:resource="http://purl.org/dc/dcmitype/StillImage"/>
    <dc:title/>
   </cc:Work>
  </rdf:RDF>
 </metadata>
 <path id="path4872" style="marker-start:none;marker-mid:none;" d="m103.06,38.086a30.315,4.4723,0,1,1,-60.63,0,30.315,4.4723,0,1,1,60.63,0z" transform="matrix(1.1412469,0.3236169,-0.62302459,1.6734185,13.92209,-41.83768)" fill="#1a1a1a"/>
 <g id="g4880" stroke="#000">
  <path id="path4874" stroke-linejoin="miter" d="m33.547,26.149s-8.5135,29.595-3.5473,49.257,3.9527,14.899,3.9527,14.899,7.0337,15,36.892,15c1.0643,0-0.82417,0.49676-0.0023-0.0415,12.839-8.4082,25.748-17.834,41.455-51.85" stroke-linecap="butt" stroke-width="1px" fill="#FFF"/>
  <path id="path4864" style="marker-start:none;marker-mid:none;" d="m103.06,38.086a30.315,4.6501,0,1,1,-60.63,0,30.315,4.6501,0,1,1,60.63,0z" transform="matrix(1.302178,0.45571327,-0.71087937,2.356487,5.3083836,-83.593295)" stroke-dasharray="none" stroke-miterlimit="4" stroke-width="0.55936891000000000" fill="#FFF"/>
  <path id="path4868" style="marker-start:none;marker-mid:none;" d="m103.06,38.086a30.315,3.9135,0,1,1,-60.63,0,30.315,3.9135,0,1,1,60.63,0z" transform="matrix(1.2102066,0.41745402,-0.66067078,2.158649,9.6808656,-73.579563)" stroke-dasharray="none" stroke-miterlimit="4" stroke-width="0.55936891000000000" fill="none"/>
 </g>
 <path id="path4775" d="m73.243,63.742a9.6033,10.392,0,1,1,-19.207,0,9.6033,10.392,0,1,1,19.207,0z" stroke="#000" stroke-dasharray="none" stroke-miterlimit="4" stroke-width="1" fill="#FFF"/>
 <path id="path3641" style="marker-start:none;marker-mid:none;" d="m103.06,38.086a30.315,4.6501,0,1,1,-60.63,0,30.315,4.6501,0,1,1,60.63,0z" transform="matrix(1.302178,0.45571327,-0.71087937,2.356487,5.3083836,-83.593295)" stroke="#000" stroke-dasharray="none" stroke-miterlimit="4" stroke-width="0.55936891000000000" fill="none"/>
 <path id="path4777" d="m96.893,69.26a8.1699,8.1699,0,1,1,-16.34,0,8.1699,8.1699,0,1,1,16.34,0z" stroke="#000" stroke-dasharray="none" stroke-miterlimit="4" stroke-width="1" fill="#FFF"/>
 <path id="path4777-1" fill="#000" d="m88.552,77.612c2.9242,0,5.494-1.5343,6.9375-3.8438-0.47879-2.4614-2.8249-4.3125-5.625-4.3125-3.1466,0-5.6875,2.3409-5.6875,5.25,0,0.66004,0.13522,1.2928,0.375,1.875,1.1807,0.66272,2.5497,1.0312,4,1.0312z"/>
 <path id="path4775-7" fill="#000" d="m63.702,74.237c3.1609,0,5.9375-1.6685,7.6875-4.2188-0.69177-2.5508-3.2511-4.4688-6.2812-4.4688-3.5622,0-6.4375,2.618-6.4375,5.8438,0,0.49219,0.06091,0.98087,0.1875,1.4375,1.4188,0.89508,3.083,1.4062,4.8438,1.4062z"/>
 <path id="path4771" stroke-linejoin="miter" d="m58.322,49.01s3.87,1.5767,6.1633,0.14333c2.2933-1.4333,4.5866-4.0133,4.5866-4.0133" stroke="#000" stroke-linecap="butt" stroke-width="1px" fill="none"/>
 <path id="path4773" stroke-linejoin="miter" d="m99.221,60.985s-2.4367-1.0033-2.2933-2.0067c0.14333-1.0033-0.86-4.1566-0.86-4.1566" stroke="#000" stroke-linecap="butt" stroke-width="1px" fill="none"/>
 <path id="path4918" stroke-linejoin="miter" d="m31.115,35.676s-3.7935-1.1872-5.1411,0.18147c-4.4676,4.5375-10.42,18.404,2.81,32.454l0.45604,3.1712-1.29-0.28666-3.0816-1.075-6.88-8.8149-3.1533-12.398,1.1467-7.2383,3.87-8.4566,12.004-1.505z" stroke="#000" stroke-linecap="butt" stroke-width="1px" fill="#FFF"/>
 <path id="path4912" stroke-linejoin="miter" d="m29.178,72.13s1.4605,0.97234-4.8114-0.0025c-7.219-1.123-10.75-20.892-10.75-20.892,0.348-8.997,0.973-25.873,18.823-21.439l-1.3253,4.5613s-5.8784-2.027-8.8176,0.30406c-8.9638,8.7089-5.8192,32.917,6.6892,35.777z" stroke="#000" stroke-linecap="butt" stroke-width="1px" fill="#FFF"/>
 <path id="path4923" stroke-linejoin="miter" d="m82.918,93.749s-2.7805,2.6158-5.7691,2.5442c-1.8628-0.04467,2.2575-0.7525,2.2575-0.7525l0.35982-1.072c-1.466-12.404-11.63-15.283-24.485-12.345l-7.8377,2.7392-0.93166-1.505,1.8843,3.2047-0.23599-1.6281,7.1666-2.795s18.124-4.1025,22.548,6.6215c2.574,6.2392,1.1477,7.0031,1.1477,7.0031l1.459-0.2588z" stroke="#000" stroke-linecap="butt" stroke-width="1px" fill="#000"/>
 <path id="path4927" stroke-linejoin="miter" d="m74.595,76.419,6.2838-0.10135s2.5338,1.8243,0.10135,3.1419-5.3716,0.70946-5.3716,0.70946" stroke="#000" stroke-linecap="butt" stroke-width="1px" fill="none"/>
</svg>
