<?xml version="1.0" encoding="utf-8"?>
<!-- Generator: Adobe Illustrator 19.0.0, SVG Export Plug-In . SVG Version: 6.00 Build 0)  -->
<svg version="1.1"
	 id="svg2985" xmlns:rdf="http://www.w3.org/1999/02/22-rdf-syntax-ns#" xmlns:cc="http://creativecommons.org/ns#" xmlns:dc="http://purl.org/dc/elements/1.1/"
	 xmlns="http://www.w3.org/2000/svg" xmlns:xlink="http://www.w3.org/1999/xlink" x="0px" y="0px" viewBox="-324 453 119 120"
	 style="enable-background:new -324 453 119 120;" xml:space="preserve">
<style type="text/css">
	.st0{fill:#1A1A1A;}
	.st1{fill:#FFFFFF;stroke:#000000;}
	.st2{fill:#FFFFFF;stroke:#000000;stroke-width:0.5594;}
	.st3{fill:none;stroke:#000000;stroke-width:0.5594;}
	.st4{fill:#6F3400;}
	.st5{fill:none;stroke:#000000;}
	.st6{stroke:#000000;}
	.st7{fill:#3D3D3D;}
	.st8{fill:none;stroke:#000000;stroke-width:1.8;stroke-linecap:round;stroke-linejoin:round;}
</style>
<g>
	<path id="path4872" class="st0" d="M-216.2,508.2c-1.5,4.1-18.3,3.1-37.4-2.3s-33.4-13.2-31.8-17.3c0,0,0,0,0,0
		c1.5-4.1,18.3-3.1,37.4,2.3S-214.7,504.1-216.2,508.2C-216.2,508.2-216.2,508.2-216.2,508.2z"/>
	<g id="g4880">
		<path id="path4874" class="st1" d="M-290.5,479.1c0,0-8.5,29.6-3.5,49.3c5,19.7,4,14.9,4,14.9s7,15,36.9,15c1.1,0-0.8,0.5,0,0
			c12.8-8.4,25.7-17.8,41.5-51.8"/>
		<path id="path4864" class="st2" d="M-211.6,506.1c-1.8,6.1-21,4.8-42.8-2.9s-38-18.7-36.2-24.8c0,0,0,0,0,0
			c1.8-6.1,21-4.8,42.8,2.9S-209.7,500.1-211.6,506.1C-211.6,506.1-211.6,506.1-211.6,506.1z"/>
		<path id="path4868" class="st3" d="M-214.8,504.7c-1.4,4.7-19,2.8-39.3-4.2c-20.3-7-35.5-16.4-34.1-21.1c0,0,0,0,0,0
			c1.4-4.7,19-2.8,39.3,4.2S-213.3,500-214.8,504.7C-214.8,504.7-214.8,504.7-214.8,504.7z"/>
	</g>
	<path id="path4775" class="st1" d="M-250.8,516.7c0,5.7-4.3,10.4-9.6,10.4s-9.6-4.7-9.6-10.4c0-5.7,4.3-10.4,9.6-10.4
		S-250.8,511-250.8,516.7z"/>
	<path id="path3641" class="st3" d="M-211.6,506.1c-1.8,6.1-21,4.8-42.8-2.9s-38-18.7-36.2-24.8c0,0,0,0,0,0
		c1.8-6.1,21-4.8,42.8,2.9S-209.7,500.1-211.6,506.1C-211.6,506.1-211.6,506.1-211.6,506.1z"/>
	<path id="path4777" class="st1" d="M-227.1,522.3c0,4.5-3.7,8.2-8.2,8.2c-4.5,0-8.2-3.7-8.2-8.2c0-4.5,3.7-8.2,8.2-8.2
		S-227.1,517.7-227.1,522.3z"/>
	<path id="path4777-1" d="M-235.2,514.5c-2.9,0-5.5,1.5-6.9,3.8c0.5,2.5,2.8,4.3,5.6,4.3c3.1,0,5.7-2.3,5.7-5.3
		c0-0.7-0.1-1.3-0.4-1.9C-232.4,514.9-233.8,514.6-235.2,514.5L-235.2,514.5z"/>
	<path id="path4872-0" class="st4" d="M-276.1,486.3c-2.9-0.1-5.2,0.2-6.9,0.7c6,4.4,16.4,9.5,28.6,13.7c17.2,5.9,32.5,8.2,37.6,5.9
		c-2.3-4.3-15.1-10.7-31.5-15.4C-259.1,488.1-269.1,486.4-276.1,486.3L-276.1,486.3z"/>
	<path id="path4775-7" d="M-260.2,506.8c-3.2,0-5.9,1.7-7.7,4.2c0.7,2.6,3.3,4.5,6.3,4.5c3.6,0,6.4-2.6,6.4-5.8c0-0.5-0.1-1-0.2-1.4
		C-256.8,507.3-258.5,506.8-260.2,506.8L-260.2,506.8z"/>
	<path id="path4771" class="st5" d="M-256.3,495.7c0,0-3.9-1.6-6.2-0.1c-2.3,1.4-4.6,4-4.6,4"/>
	<path id="path4773" class="st5" d="M-228.5,505.5c0,0,2.4,1,2.3,2c-0.1,1,0.9,4.2,0.9,4.2"/>
	<path id="path4918" class="st1" d="M-292.9,488.7c0,0-3.8-1.2-5.1,0.2c-4.5,4.5-10.4,18.4,2.8,32.5l0.5,3.2l-1.3-0.3l-3.1-1.1
		l-6.9-8.8l-3.2-12.4l1.1-7.2l3.9-8.5l12-1.5L-292.9,488.7z"/>
	<path id="path4912" class="st1" d="M-294.8,525.1c0,0,1.5,1-4.8,0c-7.2-1.1-10.8-20.9-10.8-20.9c0.3-9,1-25.9,18.8-21.4l-1.3,4.6
		c0,0-5.9-2-8.8,0.3c-9,8.7-5.8,32.9,6.7,35.8L-294.8,525.1z"/>
	<path id="path4923" class="st6" d="M-276.3,528.4c0,0,2.8-2.6,5.8-2.5c1.9,0-2.3,0.8-2.3,0.8l4.4,6.7l0.2,9.2c0,0,2.3,14.2,13,6.9
		c3.7-2.6,5.3-5.3,5.3-5.3l3.2-3l7.4-3.3l0.9,1.5l-1.9-3.2l0.2,1.6l-7.2,2.8c0,0-11,4.8-20.9-7.4c-4.3-5.2-4.2-6.7-4.2-6.7l-1.5,0.3
		L-276.3,528.4z"/>
	<path id="path4925" class="st7" d="M-259.7,551.2c-0.3,0.7-2.1,0.2-4-1c-1.9-1.3-3.1-2.8-2.8-3.5c0.3-0.7,2.1-0.2,4,1
		C-260.6,549-259.4,550.5-259.7,551.2L-259.7,551.2z"/>
	<path id="path4927" class="st5" d="M-249.4,529.4l6.3-0.1c0,0,2.5,1.8,0.1,3.1c-2.4,1.3-5.4,0.7-5.4,0.7"/>
	<path id="path4931" class="st1" d="M-261.7,538.8c0,0-2.2,5.3,4.3,7.9c3.5-0.4,4.6-2.1,5-5.1C-256.5,540.9-261.7,538.8-261.7,538.8
		L-261.7,538.8z"/>
	<path id="path4933" class="st5" d="M-256.5,540.6c0,0,0.8,3.3-1.3,5.7"/>
	<path id="path4958" class="st8" d="M-246.4,456.6c0,0-14.9,4.3-5.7,16.4c9.2,12.1-6.4,17.1-6.4,17.1"/>
	<path id="path4958-9" class="st8" d="M-239.8,458.5c0,0-14.9,4.3-5.7,16.4c9.2,12.1-6.4,17.1-6.4,17.1"/>
	<path id="path4958-4" class="st8" d="M-233.1,461.4c0,0-14.9,4.3-5.7,16.4c9.2,12.1-6.4,17.1-6.4,17.1"/>
</g>
<path id="path4872_1_" class="st0" d="M-87.1,497.7c-0.1,4.4-16.3,8.8-36.1,9.8s-35.8-1.7-35.7-6.1c0,0,0,0,0,0
	c0.1-4.4,16.3-8.8,36.1-9.8S-87,493.2-87.1,497.7C-87.1,497.7-87.1,497.7-87.1,497.7z"/>
<g id="g4880_1_">
	<path id="path4874_1_" class="st1" d="M-166.8,494c0,0,1.5,30.8,12.5,47.8c7.9,12.5,9.4,13.7,9.4,13.7s21.7,7.8,40,0
		c9.4-12.1,17.5-23.8,21.4-61"/>
	<path id="path4864_1_" class="st2" d="M-83.4,494.2c0.2,6.3-18.3,11.3-41.4,11.1c-23.1-0.2-42-5.5-42.2-11.8c0,0,0,0,0,0
		c-0.2-6.3,18.3-11.3,41.4-11.1C-102.6,482.5-83.7,487.8-83.4,494.2C-83.4,494.1-83.4,494.1-83.4,494.2z"/>
	<path id="path4872-0_1_" class="st4" d="M-155.3,494.2c-3,0.8-4.9,1.5-6.5,2.5c4.6,2.8,23,6.3,32.7,5.6c19.2,0.7,35.5-2.3,40-6
		c-3.5-3.5-18.4-5.9-36.5-5.6C-137.5,491-148.2,492.3-155.3,494.2L-155.3,494.2z"/>
	<path id="path4868_1_" class="st3" d="M-86.9,493.8c0.2,4.9-17.1,8.8-38.5,8.7s-38.9-4.1-39.1-9c0,0,0,0,0,0
		c-0.2-4.9,17.1-8.8,38.5-8.7S-87.1,488.9-86.9,493.8C-86.9,493.8-86.9,493.8-86.9,493.8z"/>
</g>
<path id="path3641_1_" class="st3" d="M-83.4,494.2c0.2,6.3-18.3,11.3-41.4,11.1c-23.1-0.2-42-5.5-42.2-11.8c0,0,0,0,0,0
	c-0.2-6.3,18.3-11.3,41.4-11.1C-102.6,482.5-83.7,487.8-83.4,494.2C-83.4,494.1-83.4,494.1-83.4,494.2z"/>
<path id="path4918_1_" class="st1" d="M-166,503.8c0,0-4,0.1-4.8,1.8c-2.8,5.7-3.9,20.8,13.1,29.8l1.5,2.9l-1.3,0.1l-3.3,0l-9.4-6.1
	l-7-10.7l-1.2-7.2l0.9-9.3l10.9-5.3L-166,503.8z"/>
<path id="path4912_1_" class="st1" d="M-156.1,539c0,0,1.7,0.4-4.6,1.5c-7.2,1.3-16.9-16.3-16.9-16.3c-2.6-8.6-7.4-24.8,10.9-26.4
	l0.2,4.7c0,0-6.2,0-8.2,3.1c-5.7,11.1,5.1,33,17.9,31.7L-156.1,539z"/>
<path id="path4958_1_" class="st8" d="M-132.4,458.5c0,0-12.7,8.9-0.1,17.3c12.6,8.5-0.5,18.3-0.5,18.3"/>
<path id="path4958-9_1_" class="st8" d="M-125.5,458.2c0,0-12.7,8.9-0.1,17.3c12.6,8.5-0.5,18.3-0.5,18.3"/>
<path id="path4958-4_1_" class="st8" d="M-118.2,458.7c0,0-12.7,8.9-0.1,17.3c12.6,8.5-0.5,18.3-0.5,18.3"/>
<path id="path4775_1_" class="st1" d="M-118.7,515.7c1.8,5.4-0.7,11.2-5.7,12.9s-10.6-1.3-12.4-6.7s0.7-11.2,5.7-12.9
	C-126.1,507.3-120.6,510.3-118.7,515.7z"/>
<path id="path4771_1_" class="st5" d="M-130.8,497.7c0,0-4.2-0.2-5.9,1.9c-1.7,2.1-3,5.3-3,5.3"/>
<path id="path4773_1_" class="st5" d="M-101.3,497.9c0,0,2.6,0.2,2.8,1.2c0.2,1,2.2,3.7,2.2,3.7"/>
<path id="path4923_1_" class="st6" d="M-139.1,535c0,0,1.8-3.4,4.6-4.3c1.8-0.6-1.9,1.4-1.9,1.4l6.3,5l3.2,8.6
	c0,0,6.8,12.7,14.5,2.3c2.7-3.6,3.3-6.8,3.3-6.8l2-3.9l5.9-5.5l1.4,1.1l-2.8-2.4l0.7,1.5l-5.9,5c0,0-8.9,8.1-22.2-0.2
	c-5.7-3.6-6.1-5-6.1-5l-1.3,0.7L-139.1,535z"/>
<path id="path4925_1_" class="st7" d="M-116.1,551.2c-0.1,0.7-2,0.9-4.1,0.3s-3.9-1.7-3.8-2.4c0.1-0.7,2-0.9,4.1-0.3
	C-117.7,549.4-116,550.5-116.1,551.2L-116.1,551.2z"/>
<path id="path4927_1_" class="st5" d="M-113.3,527.3l5.9-2.1c0,0,3,0.9,1.1,2.9c-1.9,2-4.9,2.4-4.9,2.4"/>
<path id="path4931_1_" class="st1" d="M-122,540.2c0,0-0.4,5.8,6.6,6.1c3.2-1.5,3.6-3.5,3.1-6.4C-116.3,540.5-122,540.2-122,540.2
	L-122,540.2z"/>
<path id="path4933_1_" class="st5" d="M-116.5,540.2c0,0,1.9,2.9,0.6,5.8"/>
<circle cx="-127.8" cy="518.8" r="6.5"/>
<path id="path4872_3_" class="st0" d="M38.1,502.1C38,506.6,21.8,511,2,512c-19.8,1-35.8-1.7-35.7-6.1c0,0,0,0,0,0
	c0.1-4.4,16.3-8.8,36.1-9.8S38.2,497.7,38.1,502.1C38.1,502.1,38.1,502.1,38.1,502.1z"/>
<g id="g4880_3_">
	<path id="path4874_3_" class="st1" d="M-41.6,498.5c0,0,1.5,30.8,12.5,47.8c7.9,12.5,9.4,13.7,9.4,13.7s21.7,7.8,40,0
		c9.4-12.1,17.5-23.8,21.4-61"/>
	<path id="path4864_3_" class="st2" d="M41.8,498.6c0.2,6.3-18.3,11.3-41.4,11.1c-23.1-0.2-42-5.5-42.2-11.8c0,0,0,0,0,0
		c-0.2-6.3,18.3-11.3,41.4-11.1C22.7,487,41.6,492.3,41.8,498.6C41.8,498.6,41.8,498.6,41.8,498.6z"/>
	<path id="path4872-0_2_" class="st4" d="M-30.1,498.7c-3,0.8-4.9,1.5-6.5,2.5c4.6,2.8,23,6.3,32.7,5.6c19.2,0.7,35.5-2.3,40-6
		c-3.5-3.5-18.4-5.9-36.5-5.6C-12.2,495.5-22.9,496.8-30.1,498.7L-30.1,498.7z"/>
	<path id="path4868_3_" class="st3" d="M38.3,498.3c0.2,4.9-17.1,8.8-38.5,8.7c-21.4-0.1-38.9-4.1-39.1-9c0,0,0,0,0,0
		c-0.2-4.9,17.1-8.8,38.5-8.7S38.2,493.4,38.3,498.3C38.3,498.3,38.3,498.3,38.3,498.3z"/>
</g>
<path id="path3641_3_" class="st3" d="M41.8,498.6c0.2,6.3-18.3,11.3-41.4,11.1c-23.1-0.2-42-5.5-42.2-11.8c0,0,0,0,0,0
	c-0.2-6.3,18.3-11.3,41.4-11.1C22.7,487,41.6,492.3,41.8,498.6C41.8,498.6,41.8,498.6,41.8,498.6z"/>
<path id="path4918_3_" class="st1" d="M-40.8,508.3c0,0-4,0.1-4.8,1.8c-2.8,5.7-3.9,20.8,13.1,29.8l1.5,2.9l-1.3,0.1l-3.3,0
	l-9.4-6.1l-7-10.7l-1.2-7.2l0.9-9.3l10.9-5.3L-40.8,508.3z"/>
<path id="path4912_3_" class="st1" d="M-30.9,543.5c0,0,1.7,0.4-4.6,1.5c-7.2,1.3-16.9-16.3-16.9-16.3c-2.6-8.6-7.4-24.8,10.9-26.4
	l0.2,4.7c0,0-6.2,0-8.2,3.1c-5.7,11.1,5.1,33,17.9,31.7L-30.9,543.5z"/>
<path id="path4958_2_" class="st8" d="M-7.1,463c0,0-12.7,8.9-0.1,17.3c12.6,8.5-0.5,18.3-0.5,18.3"/>
<path id="path4958-9_2_" class="st8" d="M-0.3,462.7c0,0-12.7,8.9-0.1,17.3c12.6,8.5-0.5,18.3-0.5,18.3"/>
<path id="path4958-4_2_" class="st8" d="M7,463.2c0,0-12.7,8.9-0.1,17.3c12.6,8.5-0.5,18.3-0.5,18.3"/>
<path id="path4771_3_" class="st5" d="M-5.5,502.1c0,0-4.2-0.2-5.9,1.8c-1.7,2.1-3,5.3-3,5.3"/>
<path id="path4773_3_" class="st5" d="M23.9,502.4c0,0,2.6,0.2,2.8,1.2c0.2,1,2.2,3.7,2.2,3.7"/>
<path id="path4923_2_" class="st6" d="M-13.8,539.5c0,0,1.8-3.4,4.6-4.3c1.8-0.6-1.9,1.4-1.9,1.4l6.3,5l3.2,8.6
	c0,0,6.8,12.7,14.5,2.3c2.7-3.6,3.3-6.8,3.3-6.8l2-3.9l5.9-5.5l1.4,1.1l-2.8-2.4l0.7,1.5l-5.9,5c0,0-8.9,8.1-22.2-0.2
	c-5.7-3.6-6.1-5-6.1-5l-1.3,0.7L-13.8,539.5z"/>
<path id="path4925_2_" class="st7" d="M9.2,555.7c-0.1,0.7-2,0.9-4.1,0.3s-3.9-1.7-3.8-2.4c0.1-0.7,2-0.9,4.1-0.3S9.3,555,9.2,555.7
	L9.2,555.7z"/>
<path id="path4927_3_" class="st5" d="M11.9,531.8l5.9-2.1c0,0,3,0.9,1.1,2.9s-4.9,2.4-4.9,2.4"/>
<path id="path4931_2_" class="st1" d="M3.3,544.7c0,0-0.4,5.8,6.6,6.1c3.2-1.5,3.6-3.5,3.1-6.4C8.9,545,3.3,544.7,3.3,544.7
	L3.3,544.7z"/>
<path id="path4933_2_" class="st5" d="M8.8,544.7c0,0,1.9,2.9,0.6,5.8"/>
<path id="path4872_2_" class="st0" d="M-35.7,389.7c-0.1,4.4-16.3,8.8-36.1,9.8c-19.8,1-35.8-1.7-35.7-6.1c0,0,0,0,0,0
	c0.1-4.4,16.3-8.8,36.1-9.8S-35.6,385.3-35.7,389.7C-35.7,389.7-35.7,389.7-35.7,389.7z"/>
<g id="g4880_2_">
	<path id="path4874_2_" class="st1" d="M-115.4,386.1c0,0,1.5,30.8,12.5,47.8c7.9,12.5,9.4,13.7,9.4,13.7s21.7,7.8,40,0
		c9.4-12.1,17.5-23.8,21.4-61"/>
	<path id="path4864_2_" class="st2" d="M-32,386.2c0.2,6.3-18.3,11.3-41.4,11.1s-42-5.5-42.2-11.8c0,0,0,0,0,0
		c-0.2-6.3,18.3-11.3,41.4-11.1C-51.2,374.6-32.3,379.9-32,386.2C-32,386.2-32,386.2-32,386.2z"/>
	<path id="path4868_2_" class="st3" d="M-35.5,385.9c0.2,4.9-17.1,8.8-38.5,8.7s-38.9-4.1-39.1-9c0,0,0,0,0,0
		c-0.2-4.9,17.1-8.8,38.5-8.7S-35.7,381-35.5,385.9C-35.5,385.9-35.5,385.9-35.5,385.9z"/>
</g>
<path id="path3641_2_" class="st3" d="M-32,386.2c0.2,6.3-18.3,11.3-41.4,11.1s-42-5.5-42.2-11.8c0,0,0,0,0,0
	c-0.2-6.3,18.3-11.3,41.4-11.1C-51.2,374.6-32.3,379.9-32,386.2C-32,386.2-32,386.2-32,386.2z"/>
<path id="path4918_2_" class="st1" d="M-114.7,395.9c0,0-4,0.1-4.8,1.8c-2.8,5.7-3.9,20.8,13.1,29.8l1.5,2.9l-1.3,0.1l-3.3,0
	l-9.4-6.1l-7-10.7l-1.2-7.2l0.9-9.3l10.9-5.3L-114.7,395.9z"/>
<path id="path4912_2_" class="st1" d="M-104.7,431.1c0,0,1.7,0.4-4.6,1.5c-7.2,1.3-16.9-16.3-16.9-16.3c-2.6-8.6-7.4-24.8,10.9-26.4
	l0.2,4.7c0,0-6.2,0-8.2,3.1c-5.7,11.1,5.1,33,17.9,31.7L-104.7,431.1z"/>
<path id="path4927_2_" class="st5" d="M-67,418l5.9-2.1c0,0,3,0.9,1.1,2.9c-1.9,2-4.9,2.4-4.9,2.4"/>
<path id="path4775_6_" class="st1" d="M-71.2,407.3c1.7,5.5-1.1,11.2-6.1,12.8s-10.5-1.6-12.2-7.1s1.1-11.2,6.1-12.8
	C-78.4,398.6-72.9,401.8-71.2,407.3z"/>
<path id="path4777_1_" class="st1" d="M-45.3,407.6c1.3,4.3-1.1,8.9-5.4,10.2s-8.9-1.1-10.2-5.4c-1.3-4.3,1.1-8.9,5.4-10.2
	S-46.6,403.3-45.3,407.6z"/>
<path id="path4777-1_1_" d="M-50.8,418c2.8-0.9,4.8-3.1,5.5-5.7c-1.2-2.2-4-3.3-6.6-2.5c-3,0.9-4.7,3.9-3.9,6.7
	c0.2,0.6,0.5,1.2,0.9,1.7C-53.6,418.5-52.2,418.5-50.8,418L-50.8,418z"/>
<path id="path4775-7_1_" d="M-77.2,420.1c3-0.9,5.2-3.3,6.1-6.3c-1.4-2.2-4.4-3.3-7.3-2.4c-3.4,1-5.4,4.4-4.4,7.5
	c0.1,0.5,0.3,0.9,0.6,1.3C-80.6,420.7-78.9,420.7-77.2,420.1L-77.2,420.1z"/>
<path id="path4923_3_" class="st6" d="M-53.1,433.1c0,0-1.9,3.3-4.8,4.1c-1.8,0.5,1.9-1.4,1.9-1.4l0-1.1c-5.1-11.4-15.6-11.2-27-4.6
	l-6.7,4.9l-1.3-1.2l2.7,2.5l-0.7-1.5l6-4.8c0,0,16.1-9.3,23.5-0.3c4.3,5.2,3.2,6.4,3.2,6.4l1.3-0.7L-53.1,433.1z"/>
<path id="path4771_2_" class="st5" d="M-88.3,397.8c0,0,4.2,0.5,6-1.5c1.8-2,3.3-5.1,3.3-5.1"/>
<path id="path4773_2_" class="st5" d="M-45.6,398.4c0,0-2.6-0.3-2.7-1.3c-0.1-1-1.9-3.8-1.9-3.8"/>
<path id="path4775_2_" class="st1" d="M5.8,519.8c1.8,5.4-0.7,11.2-5.7,12.9s-10.6-1.3-12.4-6.7s0.7-11.2,5.7-12.9
	C-1.6,511.3,4,514.3,5.8,519.8z"/>
<path id="path4777_2_" class="st1" d="M30,517.4c1.5,4.3-0.8,8.9-5.1,10.4c-4.3,1.5-8.9-0.8-10.4-5.1c-1.5-4.3,0.8-8.9,5.1-10.4
	C23.9,510.8,28.6,513.1,30,517.4z"/>
<path id="path4777-1_2_" d="M19.9,512.7c-2.8,0.9-4.7,3.2-5.3,5.9c1.2,2.2,4.1,3.2,6.7,2.3c3-1,4.6-4,3.7-6.8
	c-0.2-0.6-0.5-1.2-1-1.7C22.6,512.1,21.2,512.2,19.9,512.7L19.9,512.7z"/>
<path id="path4775-7_2_" d="M-0.2,532.7c3-1,5.1-3.5,5.9-6.5c-1.5-2.2-4.5-3.2-7.4-2.2c-3.4,1.1-5.3,4.6-4.2,7.6
	c0.2,0.5,0.4,0.9,0.6,1.3C-3.7,533.3-1.9,533.3-0.2,532.7L-0.2,532.7z"/>
<g>
	<path id="path4777_3_" class="st1" d="M-94.9,514.1c1.5,4.3-0.8,8.9-5.1,10.4c-4.3,1.5-8.9-0.8-10.4-5.1c-1.5-4.3,0.8-8.9,5.1-10.4
		S-96.4,509.8-94.9,514.1z"/>
	<circle cx="-102.7" cy="516.7" r="5.1"/>
</g>
</svg>
