<?xml version="1.0" encoding="UTF-8" standalone="no"?>
<!-- Created with Inkscape (http://www.inkscape.org/) -->

<svg
   xmlns:dc="http://purl.org/dc/elements/1.1/"
   xmlns:cc="http://creativecommons.org/ns#"
   xmlns:rdf="http://www.w3.org/1999/02/22-rdf-syntax-ns#"
   xmlns:svg="http://www.w3.org/2000/svg"
   xmlns="http://www.w3.org/2000/svg"
   xmlns:xlink="http://www.w3.org/1999/xlink"
   xmlns:sodipodi="http://sodipodi.sourceforge.net/DTD/sodipodi-0.dtd"
   xmlns:inkscape="http://www.inkscape.org/namespaces/inkscape"
   width="285.42499"
   height="231.35611"
   id="svg2"
   version="1.1"
   inkscape:version="0.48.5 r10040"
   sodipodi:docname="sugar.svg">
  <defs
     id="defs4">
    <linearGradient
       id="linearGradient3801">
      <stop
         style="stop-color:#ffffff;stop-opacity:1;"
         offset="0"
         id="stop3803" />
      <stop
         style="stop-color:#e6e6e6;stop-opacity:1;"
         offset="1"
         id="stop3805" />
    </linearGradient>
    <linearGradient
       inkscape:collect="always"
       id="linearGradient3795">
      <stop
         style="stop-color:#ffffff;stop-opacity:1;"
         offset="0"
         id="stop3797" />
      <stop
         style="stop-color:#ffffff;stop-opacity:0;"
         offset="1"
         id="stop3799" />
    </linearGradient>
    <linearGradient
       inkscape:collect="always"
       xlink:href="#linearGradient3795"
       id="linearGradient3787"
       x1="247.85715"
       y1="426.64789"
       x2="247.85715"
       y2="429.50504"
       gradientUnits="userSpaceOnUse" />
    <radialGradient
       inkscape:collect="always"
       xlink:href="#linearGradient3801"
       id="radialGradient3829"
       cx="242.21915"
       cy="532.44611"
       fx="242.21915"
       fy="532.44611"
       r="141.94067"
       gradientTransform="matrix(5.8788794,-0.04509654,0.02782709,3.6275293,-1143.3863,-1469.3554)"
       gradientUnits="userSpaceOnUse"
       spreadMethod="pad" />
    <radialGradient
       inkscape:collect="always"
       xlink:href="#linearGradient3801"
       id="radialGradient3831"
       cx="294.60629"
       cy="507.26523"
       fx="294.60629"
       fy="507.26523"
       r="123.60938"
       gradientTransform="matrix(0.99986833,0.01622691,-0.01733572,1.0681905,8.8561529,-103.4416)"
       gradientUnits="userSpaceOnUse" />
    <radialGradient
       inkscape:collect="always"
       xlink:href="#linearGradient3801"
       id="radialGradient3838"
       gradientUnits="userSpaceOnUse"
       gradientTransform="matrix(0.99986833,0.01622691,-0.01733572,1.0681905,8.8561529,-103.4416)"
       cx="294.60629"
       cy="507.26523"
       fx="294.60629"
       fy="507.26523"
       r="123.60938" />
    <radialGradient
       inkscape:collect="always"
       xlink:href="#linearGradient3801"
       id="radialGradient3840"
       gradientUnits="userSpaceOnUse"
       gradientTransform="matrix(5.8788794,-0.04509654,0.02782709,3.6275293,-1143.3863,-1469.3554)"
       spreadMethod="pad"
       cx="242.21915"
       cy="532.44611"
       fx="242.21915"
       fy="532.44611"
       r="141.94067" />
    <linearGradient
       inkscape:collect="always"
       xlink:href="#linearGradient3801"
       id="linearGradient3853"
       x1="496.99506"
       y1="112.66319"
       x2="385.3732"
       y2="110.64288"
       gradientUnits="userSpaceOnUse" />
  </defs>
  <sodipodi:namedview
     id="base"
     pagecolor="#ffffff"
     bordercolor="#666666"
     borderopacity="1.0"
     inkscape:pageopacity="0.0"
     inkscape:pageshadow="2"
     inkscape:zoom="1.4"
     inkscape:cx="263.35542"
     inkscape:cy="151.04202"
     inkscape:document-units="px"
     inkscape:current-layer="layer1"
     showgrid="false"
     fit-margin-top="0"
     fit-margin-left="0"
     fit-margin-right="0"
     fit-margin-bottom="0"
     inkscape:window-width="1920"
     inkscape:window-height="1057"
     inkscape:window-x="-8"
     inkscape:window-y="-8"
     inkscape:window-maximized="1" />
  <metadata
     id="metadata7">
    <rdf:RDF>
      <cc:Work
         rdf:about="">
        <dc:format>image/svg+xml</dc:format>
        <dc:type
           rdf:resource="http://purl.org/dc/dcmitype/StillImage" />
        <dc:title></dc:title>
      </cc:Work>
    </rdf:RDF>
  </metadata>
  <g
     inkscape:label="Layer 1"
     inkscape:groupmode="layer"
     id="layer1"
     transform="translate(-87.96875,-367.2127)">
    <g
       id="g3833"
       style="stroke-width:6;stroke-miterlimit:4;stroke-dasharray:none">
      <path
         sodipodi:nodetypes="csccc"
         inkscape:connector-curvature="0"
         id="path3006"
         d="m 89.966733,422.57664 c 0,0 108.939157,-40.33882 282.828627,1.1153 2.64237,0.62992 -7.82761,54.2376 -62.98257,67.28104 L 102.83763,471.23254 z"
         style="fill:#ececec;fill-opacity:1;stroke:#000000;stroke-width:6;stroke-linecap:butt;stroke-linejoin:round;stroke-miterlimit:4;stroke-opacity:1;stroke-dasharray:none" />
      <path
         sodipodi:nodetypes="sssccsssccs"
         inkscape:connector-curvature="0"
         id="path2996"
         d="m 230.42227,367.73398 c -0.93109,0.01 -1.88113,0.0299 -2.84375,0.0625 -55.58347,1.8803 -49.61255,43.42282 -59.6875,45.53125 -20.79723,4.35232 -43.31519,13.90307 -60.65625,22.53125 0,0 117.67683,39.02603 246.21875,-0.875 0,0 -13.60271,-18.53911 -63.8125,-23.125 -3.90645,-0.3568 -0.5602,-44.72657 -59.21875,-44.125 z m 0.3125,18.71875 c 8.95399,0.11831 19.18553,5.15644 29.875,19.90625 -40.91118,3.78807 -61.09375,0.25 -61.09375,0.25 0,0 12.88438,-20.3985 31.21875,-20.15625 z"
         style="fill:url(#radialGradient3838);fill-opacity:1;stroke:#000000;stroke-width:6;stroke-linecap:butt;stroke-linejoin:miter;stroke-opacity:1;stroke-miterlimit:4;stroke-dasharray:none" />
      <path
         sodipodi:nodetypes="csssccc"
         inkscape:connector-curvature="0"
         id="path3004"
         d="m 89.903577,427.58283 c 0,0 -3.923321,116.40215 67.292433,154.78794 4.89273,2.63721 0.65676,6.0979 4.51133,7.13236 50.90937,13.66262 118.21774,8.07474 141.04905,2.88398 3.77514,-0.85829 1.22556,-8.03937 1.22556,-8.03937 0,0 68.4923,-36.0111 68.76434,-156.25983 -89.10909,38.20645 -248.91902,21.26307 -282.842713,-0.50508 z"
         style="fill:url(#radialGradient3840);fill-opacity:1;stroke:#000000;stroke-width:6;stroke-linecap:butt;stroke-linejoin:miter;stroke-opacity:1;stroke-miterlimit:4;stroke-dasharray:none" />
    </g>
    <path
       style="fill:url(#linearGradient3853);stroke:#000000;stroke-width:6;stroke-linecap:butt;stroke-linejoin:miter;stroke-opacity:1;stroke-miterlimit:4;stroke-dasharray:none;fill-opacity:1"
       d="M 318.5625 -6.96875 C 289.69057 -7.4825517 288.90625 10.125 288.90625 10.125 C 288.90625 10.125 307.32529 5.0300329 318.1875 28.3125 C 318.69258 91.95211 332.34375 95.5 332.34375 95.5 C 332.34375 95.5 323.2769 203.6807 326.625 223.5625 C 365.26334 231.89626 479.21543 230.65143 519.625 226.0625 C 527.32096 223.34771 526.59375 219.8125 526.59375 219.8125 C 526.59375 219.8125 527.79316 226.82191 522.4375 149.375 C 543.81398 156.70236 599.84729 121.40262 600.25 72.4375 C 600.8598 -1.7065254 514.15625 12.15625 514.15625 12.15625 C 514.15625 12.15625 515.0815 4.6592391 511.125 0.03125 C 458.59707 8.6175467 350.03125 -1.46875 350.03125 -1.46875 C 336.9436 -5.238659 326.64664 -6.8248855 318.5625 -6.96875 z M 544.5 25.0625 C 555.08897 24.792562 567.39544 30.292939 579.34375 49.0625 C 581.91227 53.097376 586.49537 68.927637 584.4375 80.4375 C 580.64979 101.62254 571.1601 120.32097 551.53125 126.8125 C 538.57498 131.09732 520.71875 121.25 520.71875 121.25 L 515.6875 39.9375 C 515.6875 39.9375 527.98121 25.483604 544.5 25.0625 z "
       transform="translate(87.96875,367.2127)"
       id="path3842" />
  </g>
</svg>
