<?xml version="1.0" encoding="UTF-8" standalone="no"?>
<!-- Created with Inkscape (http://www.inkscape.org/) -->

<svg
   xmlns:dc="http://purl.org/dc/elements/1.1/"
   xmlns:cc="http://creativecommons.org/ns#"
   xmlns:rdf="http://www.w3.org/1999/02/22-rdf-syntax-ns#"
   xmlns:svg="http://www.w3.org/2000/svg"
   xmlns="http://www.w3.org/2000/svg"
   xmlns:xlink="http://www.w3.org/1999/xlink"
   xmlns:sodipodi="http://sodipodi.sourceforge.net/DTD/sodipodi-0.dtd"
   xmlns:inkscape="http://www.inkscape.org/namespaces/inkscape"
   width="320.37823"
   height="368.88513"
   id="svg2"
   version="1.1"
   inkscape:version="0.48.5 r10040"
   sodipodi:docname="tall_creamer.svg">
  <defs
     id="defs4">
    <linearGradient
       id="linearGradient3801">
      <stop
         style="stop-color:#ffffff;stop-opacity:1;"
         offset="0"
         id="stop3803" />
      <stop
         style="stop-color:#e6e6e6;stop-opacity:1;"
         offset="1"
         id="stop3805" />
    </linearGradient>
    <linearGradient
       inkscape:collect="always"
       id="linearGradient3795">
      <stop
         style="stop-color:#ffffff;stop-opacity:1;"
         offset="0"
         id="stop3797" />
      <stop
         style="stop-color:#ffffff;stop-opacity:0;"
         offset="1"
         id="stop3799" />
    </linearGradient>
    <linearGradient
       inkscape:collect="always"
       xlink:href="#linearGradient3795"
       id="linearGradient3787"
       x1="247.85715"
       y1="426.64789"
       x2="247.85715"
       y2="429.50504"
       gradientUnits="userSpaceOnUse" />
    <radialGradient
       inkscape:collect="always"
       xlink:href="#linearGradient3801"
       id="radialGradient3829"
       cx="242.21915"
       cy="532.44611"
       fx="242.21915"
       fy="532.44611"
       r="141.94067"
       gradientTransform="matrix(5.8788794,-0.04509654,0.02782709,3.6275293,-1143.3863,-1469.3554)"
       gradientUnits="userSpaceOnUse"
       spreadMethod="pad" />
    <radialGradient
       inkscape:collect="always"
       xlink:href="#linearGradient3801"
       id="radialGradient3831"
       cx="294.60629"
       cy="507.26523"
       fx="294.60629"
       fy="507.26523"
       r="123.60938"
       gradientTransform="matrix(0.99986833,0.01622691,-0.01733572,1.0681905,8.8561529,-103.4416)"
       gradientUnits="userSpaceOnUse" />
    <radialGradient
       inkscape:collect="always"
       xlink:href="#linearGradient3801"
       id="radialGradient3838"
       gradientUnits="userSpaceOnUse"
       gradientTransform="matrix(0.99986833,0.01622691,-0.01733572,1.0681905,8.8561529,-103.4416)"
       cx="294.60629"
       cy="507.26523"
       fx="294.60629"
       fy="507.26523"
       r="123.60938" />
    <radialGradient
       inkscape:collect="always"
       xlink:href="#linearGradient3801"
       id="radialGradient3840"
       gradientUnits="userSpaceOnUse"
       gradientTransform="matrix(5.8788794,-0.04509654,0.02782709,3.6275293,-1143.3863,-1469.3554)"
       spreadMethod="pad"
       cx="242.21915"
       cy="532.44611"
       fx="242.21915"
       fy="532.44611"
       r="141.94067" />
    <linearGradient
       inkscape:collect="always"
       xlink:href="#linearGradient3801"
       id="linearGradient3853"
       x1="496.99506"
       y1="112.66319"
       x2="385.3732"
       y2="110.64288"
       gradientUnits="userSpaceOnUse" />
    <linearGradient
       inkscape:collect="always"
       xlink:href="#linearGradient3801"
       id="linearGradient3861"
       gradientUnits="userSpaceOnUse"
       x1="496.99506"
       y1="112.66319"
       x2="385.3732"
       y2="110.64288" />
  </defs>
  <sodipodi:namedview
     id="base"
     pagecolor="#ffffff"
     bordercolor="#666666"
     borderopacity="1.0"
     inkscape:pageopacity="0.0"
     inkscape:pageshadow="2"
     inkscape:zoom="0.98994949"
     inkscape:cx="98.789815"
     inkscape:cy="390.96122"
     inkscape:document-units="px"
     inkscape:current-layer="layer1"
     showgrid="false"
     fit-margin-top="0"
     fit-margin-left="0"
     fit-margin-right="0"
     fit-margin-bottom="0"
     inkscape:window-width="1920"
     inkscape:window-height="1057"
     inkscape:window-x="-8"
     inkscape:window-y="-8"
     inkscape:window-maximized="1" />
  <metadata
     id="metadata7">
    <rdf:RDF>
      <cc:Work
         rdf:about="">
        <dc:format>image/svg+xml</dc:format>
        <dc:type
           rdf:resource="http://purl.org/dc/dcmitype/StillImage" />
        <dc:title></dc:title>
      </cc:Work>
    </rdf:RDF>
  </metadata>
  <g
     inkscape:label="Layer 1"
     inkscape:groupmode="layer"
     id="layer1"
     transform="translate(-373.6875,-356.27694)">
    <g
       id="g3857">
      <path
         transform="translate(373.6875,357.23278)"
         inkscape:connector-curvature="0"
         id="path3855"
         d="m 224.64286,10.786433 c 0,0 -106.42857,-17.8571428 -161.785717,-2.4999999"
         style="fill:#ececec;fill-opacity:1;stroke:#000000;stroke-width:6;stroke-linecap:butt;stroke-linejoin:miter;stroke-miterlimit:4;stroke-opacity:1;stroke-dasharray:none" />
      <path
         sodipodi:nodetypes="scccccccscccsccccc"
         inkscape:connector-curvature="0"
         id="path3842"
         transform="translate(87.96875,367.2127)"
         d="M 318.5625,-6.96875 C 289.69057,-7.4825517 288.90625,10.125 288.90625,10.125 c 0,0 18.41904,-5.0949671 29.28125,18.1875 0.50508,63.63961 14.15625,67.1875 14.15625,67.1875 0,0 -31.92399,233.46641 -28.57589,253.34821 38.63834,8.33376 190.09043,7.08893 230.5,2.5 7.69596,-2.71479 3.55949,-7.76523 3.55949,-7.76523 0,0 -2.6784,-6.65094 -9.67556,-50.63655 47.09076,-25.52978 74.55264,-97.2581 74.95535,-146.22322 0.6098,-74.144021 -88.95089,-134.56696 -88.95089,-134.56696 0,0 0.92525,-7.4970109 -3.03125,-12.125 -52.52793,8.5862967 -161.09375,-1.5 -161.09375,-1.5 -13.08765,-3.769909 -23.38461,-5.3561355 -31.46875,-5.5 z m 211.65179,55.602679 c 25.9015,22.136623 50.5569,58.812391 57.08035,99.768401 -10.05936,59.79522 -17.3566,88.00547 -60.8616,117.84767 L 516.40179,74.223214 c 0,0 -2.70629,-25.168181 13.8125,-25.589285 z"
         style="fill:url(#linearGradient3861);fill-opacity:1;stroke:#000000;stroke-width:6;stroke-linecap:butt;stroke-linejoin:miter;stroke-miterlimit:4;stroke-opacity:1;stroke-dasharray:none" />
    </g>
    <g
       id="g3833"
       style="stroke-width:6;stroke-miterlimit:4;stroke-dasharray:none"
       transform="translate(-33.335034,120.20815)">
      <path
         sodipodi:nodetypes="csccc"
         inkscape:connector-curvature="0"
         id="path3006"
         d="m 89.966733,422.57664 c 0,0 108.939157,-40.33882 282.828627,1.1153 2.64237,0.62992 -7.82761,54.2376 -62.98257,67.28104 L 102.83763,471.23254 z"
         style="fill:#ececec;fill-opacity:1;stroke:#000000;stroke-width:6;stroke-linecap:butt;stroke-linejoin:round;stroke-miterlimit:4;stroke-opacity:1;stroke-dasharray:none" />
      <path
         sodipodi:nodetypes="sssccsssccs"
         inkscape:connector-curvature="0"
         id="path2996"
         d="m 230.42227,367.73398 c -0.93109,0.01 -1.88113,0.0299 -2.84375,0.0625 -55.58347,1.8803 -49.61255,43.42282 -59.6875,45.53125 -20.79723,4.35232 -43.31519,13.90307 -60.65625,22.53125 0,0 117.67683,39.02603 246.21875,-0.875 0,0 -13.60271,-18.53911 -63.8125,-23.125 -3.90645,-0.3568 -0.5602,-44.72657 -59.21875,-44.125 z m 0.3125,18.71875 c 8.95399,0.11831 19.18553,5.15644 29.875,19.90625 -40.91118,3.78807 -61.09375,0.25 -61.09375,0.25 0,0 12.88438,-20.3985 31.21875,-20.15625 z"
         style="fill:url(#radialGradient3838);fill-opacity:1;stroke:#000000;stroke-width:6;stroke-linecap:butt;stroke-linejoin:miter;stroke-miterlimit:4;stroke-opacity:1;stroke-dasharray:none" />
      <path
         sodipodi:nodetypes="csssccc"
         inkscape:connector-curvature="0"
         id="path3004"
         d="m 89.903577,427.58283 c 0,0 -3.923321,116.40215 67.292433,154.78794 4.89273,2.63721 0.65676,6.0979 4.51133,7.13236 50.90937,13.66262 118.21774,8.07474 141.04905,2.88398 3.77514,-0.85829 1.22556,-8.03937 1.22556,-8.03937 0,0 68.4923,-36.0111 68.76434,-156.25983 -89.10909,38.20645 -248.91902,21.26307 -282.842713,-0.50508 z"
         style="fill:url(#radialGradient3840);fill-opacity:1;stroke:#000000;stroke-width:6;stroke-linecap:butt;stroke-linejoin:miter;stroke-miterlimit:4;stroke-opacity:1;stroke-dasharray:none" />
    </g>
  </g>
</svg>
