<?xml version="1.0" encoding="utf-8"?>
<!-- Generator: Adobe Illustrator 19.0.0, SVG Export Plug-In . SVG Version: 6.00 Build 0)  -->
<svg version="1.1" id="Layer_1" xmlns="http://www.w3.org/2000/svg" xmlns:xlink="http://www.w3.org/1999/xlink" x="0px" y="0px"
	 viewBox="0 0 400 400" style="enable-background:new 0 0 400 400;" xml:space="preserve">
<g id="XMLID_24_">
	<g id="XMLID_65_">
		
			<rect id="XMLID_96_" x="69.7" y="102.3" style="fill:#FFFFFF;stroke:#000000;stroke-width:4;stroke-miterlimit:10;" width="300" height="254.7"/>
		<rect id="XMLID_95_" x="107.1" y="197.6" style="fill:#754C24;" width="259" height="45.2"/>
		<rect id="XMLID_94_" x="107.1" y="308" style="fill:#754C24;" width="259" height="45.2"/>
		<path id="XMLID_93_" style="fill:#FFFFFF;stroke:#000000;stroke-width:4;stroke-miterlimit:10;" d="M30.8,363.3v-303
			c0-6.6,5.4-12,12-12h55.8c6.6,0,12,5.4,12,12v303c0,6.6-5.4,12-12,12H42.8C36.2,375.3,30.8,369.9,30.8,363.3z"/>
		<text id="XMLID_92_" transform="matrix(1 0 0 1 183.2104 184.4813)" style="font-family:'ArialMT'; font-size:38.8837px;">donor</text>
		<text id="XMLID_91_" transform="matrix(1 0 0 1 212.8145 287.4344)" style="font-family:'ArialMT'; font-size:38.8837px;">on</text>
		
			<text id="XMLID_90_" transform="matrix(1 0 0 1 198.2324 233.2323)" style="fill:#FFFFFF; font-family:'ArialMT'; font-size:38.8837px;">alex</text>
		
			<text id="XMLID_89_" transform="matrix(1 0 0 1 198.2324 343.2557)" style="fill:#FFFFFF; font-family:'ArialMT'; font-size:38.8837px;">6/08</text>
		<path id="XMLID_88_" d="M95.9,356.9H45.6c-1.1,0-2-0.9-2-2V160.4c0-1.1,0.9-2,2-2h50.3c1.1,0,2,0.9,2,2v194.5
			C97.9,356,97,356.9,95.9,356.9z"/>
		<g id="XMLID_82_">
			
				<rect id="XMLID_87_" x="310.4" y="158.7" style="fill:#754C24;stroke:#000000;stroke-width:4;stroke-miterlimit:10;" width="32" height="31.7"/>
			
				<rect id="XMLID_86_" x="308.4" y="155" style="fill:#754C24;stroke:#000000;stroke-width:4;stroke-miterlimit:10;" width="36.1" height="14.1"/>
			
				<line id="XMLID_85_" style="fill:#754C24;stroke:#000000;stroke-width:4;stroke-miterlimit:10;" x1="326.4" y1="155" x2="326.4" y2="190.4"/>
			<path id="XMLID_84_" style="fill:#754C24;stroke:#000000;stroke-width:4;stroke-miterlimit:10;" d="M327.1,153.8
				c-1.3,1.4-9.2-3.8-12.3-6.8c-3.2-2.9-4.7-6.4-3.3-7.9s4.9-0.2,8.1,2.7C322.7,144.8,328.4,152.4,327.1,153.8z"/>
			<path id="XMLID_83_" style="fill:#754C24;stroke:#000000;stroke-width:4;stroke-miterlimit:10;" d="M326.6,153.8
				c1.3,1.4,9.2-3.8,12.3-6.8s4.7-6.4,3.3-7.9s-4.9-0.2-8.1,2.7C331,144.8,325.3,152.4,326.6,153.8z"/>
		</g>
		<g id="XMLID_79_">
			
				<circle id="XMLID_81_" style="fill:#FFFFFF;stroke:#000000;stroke-width:4;stroke-miterlimit:10;" cx="325.9" cy="275.9" r="25.6"/>
			
				<polyline id="XMLID_80_" style="fill:#FFFFFF;stroke:#000000;stroke-width:4;stroke-linecap:square;stroke-miterlimit:10;" points="
				325,261 325,277.3 335,277.6 			"/>
		</g>
		<rect id="XMLID_78_" x="51.5" y="253.8" style="fill:#754C24;" width="38.4" height="94.2"/>
		<g id="XMLID_66_">
			
				<line id="XMLID_77_" style="fill:none;stroke:#000000;stroke-width:3;stroke-miterlimit:10;" x1="44" y1="350.5" x2="70" y2="350.5"/>
			
				<line id="XMLID_76_" style="fill:none;stroke:#000000;stroke-width:3;stroke-miterlimit:10;" x1="44" y1="332.5" x2="70" y2="332.5"/>
			
				<line id="XMLID_75_" style="fill:none;stroke:#000000;stroke-width:3;stroke-miterlimit:10;" x1="44" y1="313.5" x2="70" y2="313.5"/>
			
				<line id="XMLID_74_" style="fill:none;stroke:#000000;stroke-width:3;stroke-miterlimit:10;" x1="44" y1="296.5" x2="70" y2="296.5"/>
			
				<line id="XMLID_73_" style="fill:none;stroke:#000000;stroke-width:3;stroke-miterlimit:10;" x1="44" y1="276.5" x2="70" y2="276.5"/>
			
				<line id="XMLID_72_" style="fill:none;stroke:#000000;stroke-width:3;stroke-miterlimit:10;" x1="44" y1="258.5" x2="70" y2="258.5"/>
			
				<line id="XMLID_71_" style="fill:none;stroke:#000000;stroke-width:3;stroke-miterlimit:10;" x1="44" y1="241.5" x2="70" y2="241.5"/>
			
				<line id="XMLID_70_" style="fill:none;stroke:#000000;stroke-width:3;stroke-miterlimit:10;" x1="44" y1="222.5" x2="70" y2="222.5"/>
			
				<line id="XMLID_69_" style="fill:none;stroke:#000000;stroke-width:3;stroke-miterlimit:10;" x1="44" y1="204.5" x2="70" y2="204.5"/>
			
				<line id="XMLID_68_" style="fill:none;stroke:#000000;stroke-width:3;stroke-miterlimit:10;" x1="44" y1="184.5" x2="70" y2="184.5"/>
			
				<line id="XMLID_67_" style="fill:none;stroke:#000000;stroke-width:3;stroke-miterlimit:10;" x1="44" y1="167.5" x2="70" y2="167.5"/>
		</g>
	</g>
	<g id="XMLID_97_">
		<path id="XMLID_13_" style="fill:#FFFFFF;stroke:#000000;stroke-width:4;stroke-miterlimit:10;" d="M378,126.4H75
			c-6.6,0-12-5.4-12-12V58.6c0-6.6,5.4-12,12-12h303c6.6,0,12,5.4,12,12v55.8C390,121,384.6,126.4,378,126.4z"/>
		<text id="XMLID_12_" transform="matrix(1 0 0 1 169.9531 103.326)" style="font-family:'ArialMT'; font-size:63.6279px;">coffee</text>
		<circle id="XMLID_11_" style="fill:#754C24;stroke:#000000;stroke-width:4;stroke-miterlimit:10;" cx="71.9" cy="86.5" r="61.9"/>
		
			<ellipse id="XMLID_8_" style="fill:#42210B;stroke:#000000;stroke-width:4;stroke-miterlimit:10;" cx="71.2" cy="85.9" rx="28.9" ry="38"/>
		<path id="XMLID_10_" style="fill:#42210B;stroke:#000000;stroke-width:4;stroke-miterlimit:10;" d="M74.7,61.4"/>
		<path id="XMLID_15_" style="fill:#42210B;stroke:#000000;stroke-width:4;stroke-miterlimit:10;" d="M71.9,124.8
			c0,0,9.3-27.8,9.3-38.9c0-7.8-9.3-37.1-9.3-37.1"/>
	</g>
</g>
</svg>
