<?xml version="1.0" encoding="utf-8"?>
<!-- Generator: Adobe Illustrator 19.0.0, SVG Export Plug-In . SVG Version: 6.00 Build 0)  -->
<svg version="1.1" id="Layer_1" xmlns="http://www.w3.org/2000/svg" xmlns:xlink="http://www.w3.org/1999/xlink" x="0px" y="0px"
	 viewBox="0 0 400 400" style="enable-background:new 0 0 400 400;" xml:space="preserve">
<g id="XMLID_25_">
	<path id="XMLID_16_" style="fill:none;stroke:#000000;stroke-width:4;stroke-miterlimit:10;" d="M71.6,117.5"/>
	<g id="XMLID_99_">
		
			<rect id="XMLID_32_" x="72.5" y="102.1" style="fill:#FFFFFF;stroke:#000000;stroke-width:4;stroke-miterlimit:10;" width="299" height="253.8"/>
		<rect id="XMLID_36_" x="109.9" y="197.1" style="fill:#29ABE2;" width="258.1" height="45.1"/>
		<rect id="XMLID_41_" x="109.9" y="307.2" style="fill:#29ABE2;" width="258.1" height="45.1"/>
		<path id="XMLID_30_" style="fill:#FFFFFF;stroke:#000000;stroke-width:4;stroke-miterlimit:10;" d="M33.9,362.2V60.4
			c0-6.6,5.4-12,12-12h55.6c6.6,0,12,5.4,12,12v301.8c0,6.6-5.4,12-12,12H45.9C39.3,374.2,33.9,368.8,33.9,362.2z"/>
		<text id="XMLID_31_" transform="matrix(1 0 0 1 185.6904 184.0404)" style="font-family:'ArialMT'; font-size:38.7486px;">donor</text>
		<text id="XMLID_44_" transform="matrix(1 0 0 1 215.1914 286.6361)" style="font-family:'ArialMT'; font-size:38.7486px;">on</text>
		
			<text id="XMLID_34_" transform="matrix(1 0 0 1 200.6601 232.6224)" style="fill:#FFFFFF; font-family:'ArialMT'; font-size:38.7486px;">alex</text>
		
			<text id="XMLID_51_" transform="matrix(1 0 0 1 200.6601 342.264)" style="fill:#FFFFFF; font-family:'ArialMT'; font-size:38.7486px;">6/08</text>
		<path id="XMLID_28_" d="M98.7,355.9H48.5c-1.1,0-2-0.9-2-2V160c0-1.1,0.9-2,2-2h50.2c1.1,0,2,0.9,2,2v193.9
			C100.7,355,99.8,355.9,98.7,355.9z"/>
		<g id="XMLID_35_">
			
				<rect id="XMLID_48_" x="312.5" y="158.4" style="fill:#29ABE2;stroke:#000000;stroke-width:4;stroke-miterlimit:10;" width="31.9" height="31.5"/>
			
				<rect id="XMLID_47_" x="310.4" y="154.6" style="fill:#29ABE2;stroke:#000000;stroke-width:4;stroke-miterlimit:10;" width="36" height="14"/>
			
				<line id="XMLID_46_" style="fill:#29ABE2;stroke:#000000;stroke-width:4;stroke-miterlimit:10;" x1="327.1" y1="153.9" x2="327.1" y2="189.1"/>
			<path id="XMLID_38_" style="fill:#29ABE2;stroke:#000000;stroke-width:4;stroke-miterlimit:10;" d="M327.8,152.7
				c-1.3,1.4-9.2-3.8-12.3-6.7c-3.1-2.9-4.6-6.4-3.3-7.8s4.9-0.2,8.1,2.7S329.1,151.3,327.8,152.7z"/>
			<path id="XMLID_49_" style="fill:#29ABE2;stroke:#000000;stroke-width:4;stroke-miterlimit:10;" d="M327.3,152.7
				c1.3,1.4,9.2-3.8,12.3-6.7c3.1-2.9,4.6-6.4,3.3-7.8s-4.9-0.2-8.1,2.7S326,151.3,327.3,152.7z"/>
		</g>
		<g id="XMLID_45_">
			
				<circle id="XMLID_37_" style="fill:#FFFFFF;stroke:#000000;stroke-width:4;stroke-miterlimit:10;" cx="326.6" cy="274.4" r="25.5"/>
			
				<polyline id="XMLID_50_" style="fill:#FFFFFF;stroke:#000000;stroke-width:4;stroke-linecap:square;stroke-miterlimit:10;" points="
				325,259 325,275.8 334.9,275.8 			"/>
		</g>
		<rect id="XMLID_52_" x="54.5" y="253.2" style="fill:#FFFFFF;" width="38.3" height="93.8"/>
		<g id="XMLID_54_">
			
				<line id="XMLID_53_" style="fill:none;stroke:#000000;stroke-width:3;stroke-miterlimit:10;" x1="47" y1="349.5" x2="73" y2="349.5"/>
			
				<line id="XMLID_55_" style="fill:none;stroke:#000000;stroke-width:3;stroke-miterlimit:10;" x1="47" y1="332.5" x2="73" y2="332.5"/>
			
				<line id="XMLID_56_" style="fill:none;stroke:#000000;stroke-width:3;stroke-miterlimit:10;" x1="47" y1="312.5" x2="73" y2="312.5"/>
			
				<line id="XMLID_57_" style="fill:none;stroke:#000000;stroke-width:3;stroke-miterlimit:10;" x1="47" y1="295.5" x2="73" y2="295.5"/>
			
				<line id="XMLID_58_" style="fill:none;stroke:#000000;stroke-width:3;stroke-miterlimit:10;" x1="47" y1="275.5" x2="73" y2="275.5"/>
			
				<line id="XMLID_59_" style="fill:none;stroke:#000000;stroke-width:3;stroke-miterlimit:10;" x1="47" y1="258.5" x2="73" y2="258.5"/>
			
				<line id="XMLID_60_" style="fill:none;stroke:#000000;stroke-width:3;stroke-miterlimit:10;" x1="47" y1="240.5" x2="73" y2="240.5"/>
			
				<line id="XMLID_61_" style="fill:none;stroke:#000000;stroke-width:3;stroke-miterlimit:10;" x1="47" y1="221.5" x2="73" y2="221.5"/>
			
				<line id="XMLID_62_" style="fill:none;stroke:#000000;stroke-width:3;stroke-miterlimit:10;" x1="47" y1="203.5" x2="73" y2="203.5"/>
			
				<line id="XMLID_63_" style="fill:none;stroke:#000000;stroke-width:3;stroke-miterlimit:10;" x1="47" y1="184.5" x2="73" y2="184.5"/>
			
				<line id="XMLID_64_" style="fill:none;stroke:#000000;stroke-width:3;stroke-miterlimit:10;" x1="47" y1="166.5" x2="73" y2="166.5"/>
		</g>
	</g>
	<g id="XMLID_98_">
		<path id="XMLID_7_" style="fill:#FFFFFF;stroke:#000000;stroke-width:4;stroke-miterlimit:10;" d="M378,128H76.2
			c-6.6,0-12-5.4-12-12V60.4c0-6.6,5.4-12,12-12H378c6.6,0,12,5.4,12,12V116C390,122.6,384.6,128,378,128z"/>
		<text id="XMLID_9_" transform="matrix(1 0 0 1 146.9409 104.9286)" style="font-family:'ArialMT'; font-size:63.4067px;">creamer</text>
		<circle id="XMLID_14_" style="fill:#29ABE2;stroke:#000000;stroke-width:4;stroke-miterlimit:10;" cx="71.6" cy="87.4" r="61.6"/>
		<path id="XMLID_17_" style="fill:#FFFFFF;stroke:#000000;stroke-width:4;stroke-miterlimit:10;" d="M99.4,104.4
			c0,13.6-12.1,24.7-27.1,24.7s-27.1-11-27.1-24.7s12-41.1,26.4-63.8C84.1,61.4,99.4,90.8,99.4,104.4z"/>
		<path id="XMLID_18_" style="fill:none;stroke:#000000;stroke-width:4;stroke-miterlimit:10;" d="M71.2,60"/>
		<g id="XMLID_19_">
			<path id="XMLID_10_" style="fill:#999999;" d="M73.4,119.4c0,0-0.3,0-0.9,0.1c-0.3,0-0.6,0.1-1,0.1c-0.4,0-0.9,0-1.4-0.1
				c-1.1-0.1-2.4-0.3-3.9-0.7c-1.4-0.5-3.1-1.1-4.6-2.2c-1.6-1.1-3.1-2.5-4.4-4.4c-1.3-1.8-2.2-4.1-2.6-6.5
				c-0.4-2.5-0.1-4.8,0.2-7.3c0.3-2.4,0.8-4.8,1.3-7.1c0.6-2.4,1.2-4.7,1.9-7c0.7-2.3,1.4-4.5,2.2-6.6c0.4-1.1,0.8-2.1,1.2-3.1
				c0.4-1,0.8-2,1.2-2.9c0.8-1.9,1.6-3.7,2.5-5.3c0.8-1.6,1.6-3.1,2.3-4.4c0.8-1.3,1.4-2.3,2-3.2c1.2-1.7,1.9-2.7,1.9-2.7
				s-0.5,1.1-1.5,2.9c-0.4,0.9-1,2.1-1.6,3.4c-0.6,1.3-1.2,2.8-1.9,4.5c-0.7,1.7-1.3,3.5-2,5.4c-0.3,1-0.7,2-1,3
				c-0.3,1-0.7,2.1-1,3.1c-0.6,2.1-1.3,4.3-1.9,6.6c-0.6,2.3-1.1,4.6-1.6,6.9c-0.5,2.3-0.9,4.6-1.2,6.9c-0.3,2.2-0.5,4.5-0.2,6.5
				c0.3,2,1,3.9,2,5.5c1,1.6,2.2,3,3.5,4c1.3,1.1,2.6,1.9,3.9,2.5c0.6,0.3,1.2,0.6,1.8,0.8c0.6,0.2,1.1,0.4,1.6,0.5
				c0.5,0.1,0.9,0.2,1.3,0.3c0.4,0.1,0.7,0.1,1,0.2c0.6,0.1,0.9,0.1,0.9,0.1C73.5,119.2,73.5,119.3,73.4,119.4
				C73.5,119.3,73.4,119.4,73.4,119.4z"/>
		</g>
	</g>
</g>
</svg>
