<?xml version="1.0" encoding="utf-8"?>
<!-- Generator: Adobe Illustrator 19.0.0, SVG Export Plug-In . SVG Version: 6.00 Build 0)  -->
<svg version="1.1" id="Layer_1" xmlns="http://www.w3.org/2000/svg" xmlns:xlink="http://www.w3.org/1999/xlink" x="0px" y="0px"
	 viewBox="0 0 400 300" style="enable-background:new 0 0 400 300;" xml:space="preserve">
<style type="text/css">
	.st0{fill:#FFFFFF;stroke:#000000;stroke-width:4;stroke-miterlimit:10;}
	.st1{fill:#8CC63F;stroke:#000000;stroke-width:4;stroke-miterlimit:10;}
	.st2{font-family:'ArialMT';}
	.st3{font-size:37px;}
	.st4{font-size:28px;text-align:center;}
	.st5{fill:#FFFFFF;stroke:#000000;stroke-width:3;}
	.st6{fill:#1A1A1A;}
	.st7{fill:#FFFFFF;stroke:#000000;stroke-width:2;}
	.st8{fill:#6F3400;}
	.st9{stroke:#000000;}
	.st10{fill:#FF8993;}
	.st11{fill:none;stroke:#000000;stroke-width:2;}
	.st12{fill:none;stroke:#000000;stroke-width:3;stroke-linecap:round;stroke-linejoin:round;}
	.st13{fill:none;stroke:#000000;stroke-width:0.5594;}
	.st14{fill:none;stroke:#000000;stroke-width:3;}
</style>
<g id="XMLID_43_">
	<rect id="XMLID_100_" x="69.6" y="163.7" class="st0" width="304.7" height="125.8"/>
	<path id="XMLID_147_" class="st1" d="M378,194.8H117.7c-6.6,0-12-5.4-12-12v-32c0-6.6,5.4-12,12-12H378c6.6,0,12,5.4,12,12v32
		C390,189.4,384.6,194.8,378,194.8z"/>
	<text id="XMLID_146_" transform="matrix(1 0 0 1 186.5161 178.6282)" class="st2 st3">muggy says</text>
	<text id="muggText" transform="matrix(1 0 0 1 93.2051 255.4807)" class="st2 st4">have a great day!</text>
	<path id="XMLID_180_" class="st5" d="M47.1,67.2l-1.2,4.3l-1.4,7.3c0,0-7.4-2.3-10.1,0.4C25.7,88,14,115.2,40,142.7
		c0,0,3,8.2,1.3,9c-11.5,5.5-30.3-31-31.1-42.5C9,91.6,12.1,58.5,47.1,67.2z"/>
	<path id="path4872_3_" class="st6" d="M195,117.1c-3,8.1-35.8,6.1-73.3-4.6S56.2,86.7,59.3,78.6c0,0,0,0,0,0
		c3-8.1,35.8-6.1,73.3,4.6S198,109,195,117.1C195,117.1,195,117.1,195,117.1z"/>
	<path id="path4874_3_" class="st5" d="M49.3,60c0,0-16.7,58.1-7,96.6s7.8,29.2,7.8,29.2s12.7,32.6,71.2,29.5c1-0.1,0.5,0.1,1.2-0.1
		c15.5-5.6,50.5-35,81.3-101.7"/>
	<path id="path4864_3_" class="st5" d="M204.1,112.9c-3.6,11.9-41.2,9.4-83.9-5.6s-74.5-36.7-71-48.6c0,0,0,0,0,0
		c3.6-11.9,41.2-9.4,83.9,5.6S207.7,101.1,204.1,112.9C204.1,112.9,204.1,112.9,204.1,112.9z"/>
	<path id="path4775_3_" class="st7" d="M127.2,133.8c0,11.3-8.4,20.4-18.8,20.4s-18.8-9.1-18.8-20.4s8.4-20.4,18.8-20.4
		S127.2,122.5,127.2,133.8z"/>
	<path id="path4777_2_" class="st7" d="M173.6,144.6c0,8.9-7.2,16-16,16c-8.9,0-16-7.2-16-16c0-8.9,7.2-16,16-16
		S173.6,135.7,173.6,144.6z"/>
	<path id="path4777-1_2_" d="M157.7,128.6c-5.7,0-10.8,3-13.6,7.5c0.9,4.8,5.5,8.5,11,8.5c6.2,0,11.2-4.6,11.2-10.3
		c0-1.3-0.3-2.5-0.7-3.7C163.2,129.3,160.5,128.6,157.7,128.6L157.7,128.6z"/>
	<path id="path4872-0_3_" class="st8" d="M75.8,78.5c-5.6-0.1-10.2,0.4-13.5,1.3c11.8,8.6,32.1,18.6,56,26.9
		c33.8,11.6,63.7,16.1,73.7,11.5c-4.5-8.5-29.6-21-61.9-30.2C109.1,82.1,89.4,78.8,75.8,78.5L75.8,78.5z"/>
	<path id="path4775-7_2_" d="M108.3,113.5c-6.2,0-11.6,3.3-15.1,8.3c1.4,5,6.4,8.8,12.3,8.8c7,0,12.6-5.1,12.6-11.5
		c0-1-0.1-1.9-0.4-2.8C115,114.6,111.7,113.5,108.3,113.5L108.3,113.5z"/>
	<path id="path4923_3_" class="st9" d="M138.7,178.1c-24.4,2.6-32.2-0.2-49.5-14.4C88.7,163.3,89.1,239.4,138.7,178.1z"/>
	<path id="path4925_3_" class="st10" d="M109.6,200.5c-0.7,1.3-4.2,0.4-7.9-2.1s-6.1-5.5-5.5-6.8c0.7-1.3,4.2-0.4,7.9,2.1
		C107.8,196.2,110.3,199.2,109.6,200.5L109.6,200.5z"/>
	<path id="path4927_3_" class="st11" d="M129.8,158.6l12.3-0.2c0,0,5,3.6,0.2,6.2s-10.5,1.4-10.5,1.4"/>
	<path id="path4958_3_" class="st12" d="M129.4,10.5c0,0-29.1,8.5-11.2,32.2c18,23.7-12.5,33.6-12.5,33.6"/>
	<path id="path4958-9_3_" class="st12" d="M148.7,19.6c0,0-29.1,8.5-11.2,32.2c18,23.7-12.5,33.6-12.5,33.6"/>
	<path id="path4958-4_3_" class="st12" d="M168.1,28.9c0,0-29.1,8.5-11.2,32.2c18,23.7-12.5,33.6-12.5,33.6"/>
	<path id="path3641_3_" class="st13" d="M204.1,112.9c-3.6,11.9-41.2,9.4-83.9-5.6s-74.5-36.7-71-48.6c0,0,0,0,0,0
		c3.6-11.9,41.2-9.4,83.9,5.6S207.7,101.1,204.1,112.9C204.1,112.9,204.1,112.9,204.1,112.9z"/>
	<path id="path3641_4_" class="st14" d="M204.1,112.5c-3.6,11.9-41.2,9.4-83.9-5.6s-74.5-36.7-71-48.6c0,0,0,0,0,0
		c3.6-11.9,41.2-9.4,83.9,5.6S207.7,100.6,204.1,112.5C204.1,112.5,204.1,112.5,204.1,112.5z"/>
</g>
</svg>
