<?xml version="1.0" encoding="utf-8"?>
<!-- Generator: Adobe Illustrator 19.0.0, SVG Export Plug-In . SVG Version: 6.00 Build 0)  -->
<svg version="1.1" id="Layer_1" xmlns="http://www.w3.org/2000/svg" xmlns:xlink="http://www.w3.org/1999/xlink" x="0px" y="0px"
	 viewBox="0 0 200 100" style="enable-background:new 0 0 200 100;" xml:space="preserve">
<style type="text/css">
	.st0{fill:none;stroke:#000000;stroke-width:3;stroke-miterlimit:10;}
</style>
<g id="XMLID_3_">
	<g id="XMLID_1_">
		<path id="XMLID_4_" d="M12,54.6c0-3.4-0.1-6.1-0.2-8.6h4.3l0.2,4.5h0.1c2-3.2,5.1-5.1,9.4-5.1c6.4,0,11.2,5.4,11.2,13.5
			c0,9.5-5.8,14.2-12,14.2c-3.5,0-6.6-1.5-8.2-4.2h-0.1v14.4H12V54.6z M16.8,61.7c0,0.7,0.1,1.4,0.2,2c0.9,3.3,3.8,5.6,7.2,5.6
			c5.1,0,8-4.2,8-10.2c0-5.3-2.8-9.9-7.9-9.9c-3.3,0-6.4,2.4-7.3,6c-0.2,0.6-0.3,1.3-0.3,2V61.7z"/>
		<path id="XMLID_7_" d="M48.5,38.5c0.1,1.6-1.1,3-3.1,3c-1.7,0-2.9-1.3-2.9-3c0-1.7,1.3-3,3-3C47.4,35.5,48.5,36.8,48.5,38.5z
			 M43.2,72.4V45.9H48v26.5H43.2z"/>
		<path id="XMLID_10_" d="M56,53.1c0-2.7-0.1-5-0.2-7.2H60l0.3,4.4h0.1c1.3-2.5,4.4-5,8.8-5c3.7,0,9.4,2.2,9.4,11.3v15.8h-4.8V57.2
			c0-4.3-1.6-7.8-6.1-7.8c-3.2,0-5.6,2.2-6.5,4.9c-0.2,0.6-0.3,1.4-0.3,2.2v15.9H56V53.1z"/>
		<path id="XMLID_12_" d="M109.2,45.9c-0.1,1.9-0.2,4.1-0.2,7.3v15.4c0,6.1-1.2,9.8-3.8,12.1c-2.6,2.4-6.3,3.2-9.6,3.2
			c-3.2,0-6.7-0.8-8.8-2.2L88,78c1.8,1.1,4.5,2.1,7.8,2.1c4.9,0,8.5-2.6,8.5-9.3v-3h-0.1c-1.5,2.5-4.3,4.4-8.4,4.4
			c-6.6,0-11.3-5.6-11.3-12.9c0-9,5.9-14.1,11.9-14.1c4.6,0,7.1,2.4,8.3,4.6h0.1l0.2-4H109.2z M104.2,56.4c0-0.8-0.1-1.5-0.3-2.2
			c-0.9-2.8-3.2-5.1-6.7-5.1c-4.6,0-7.9,3.9-7.9,10c0,5.2,2.6,9.5,7.8,9.5c3,0,5.6-1.9,6.7-4.9c0.3-0.8,0.4-1.8,0.4-2.6V56.4z"/>
		<path id="XMLID_15_" d="M116.6,54.6c0-3.4-0.1-6.1-0.2-8.6h4.3l0.2,4.5h0.1c2-3.2,5.1-5.1,9.4-5.1c6.4,0,11.2,5.4,11.2,13.5
			c0,9.5-5.8,14.2-12,14.2c-3.5,0-6.6-1.5-8.2-4.2h-0.1v14.4h-4.8V54.6z M121.4,61.7c0,0.7,0.1,1.4,0.2,2c0.9,3.3,3.8,5.6,7.2,5.6
			c5.1,0,8-4.2,8-10.2c0-5.3-2.8-9.9-7.9-9.9c-3.3,0-6.4,2.4-7.3,6c-0.2,0.6-0.3,1.3-0.3,2V61.7z"/>
		<path id="XMLID_18_" d="M171.8,59c0,9.8-6.8,14.1-13.2,14.1c-7.2,0-12.7-5.3-12.7-13.6c0-8.9,5.8-14.1,13.1-14.1
			C166.6,45.3,171.8,50.9,171.8,59z M150.8,59.2c0,5.8,3.3,10.2,8,10.2c4.6,0,8-4.3,8-10.3c0-4.5-2.2-10.2-7.9-10.2
			C153.2,49,150.8,54.2,150.8,59.2z"/>
		<path id="XMLID_21_" d="M183.7,38.3v7.6h6.9v3.7h-6.9v14.3c0,3.3,0.9,5.1,3.6,5.1c1.3,0,2.2-0.2,2.8-0.3l0.2,3.6
			c-0.9,0.4-2.4,0.7-4.3,0.7c-2.2,0-4.1-0.7-5.2-2c-1.4-1.4-1.9-3.8-1.9-6.9V49.6h-4.1v-3.7h4.1v-6.4L183.7,38.3z"/>
	</g>
	<path id="bar3" class="st0" d="M44.5,29.1c5.6,0,10.1,4.5,10.1,10.1" ng-show="signalClass.one"/>
	<path id="bar2" class="st0" d="M44.5,21.8c9.5,0,17.2,7.8,17.2,17.4" ng-show="signalClass.two"/>
	<path id="bar1" class="st0" d="M44.5,13.9c14,0,25.3,11.3,25.3,25.3" ng-show="signalClass.three"/>
</g>
</svg>
