<?xml version="1.0" encoding="utf-8"?>
<!-- Generator: Adobe Illustrator 19.0.0, SVG Export Plug-In . SVG Version: 6.00 Build 0)  -->
<svg version="1.1" id="Layer_1" xmlns="http://www.w3.org/2000/svg" xmlns:xlink="http://www.w3.org/1999/xlink" x="0px" y="0px"
	 viewBox="0 0 400 400" style="enable-background:new 0 0 400 400;" xml:space="preserve">
<g id="XMLID_39_">
	<g id="XMLID_101_">
		
			<rect id="XMLID_132_" x="69.7" y="101.4" style="fill:#FFFFFF;stroke:#000000;stroke-width:4;stroke-miterlimit:10;" width="300" height="254.7"/>
		<rect id="XMLID_131_" x="107.1" y="196.7" style="fill:#FCEE21;" width="259" height="45.2"/>
		<rect id="XMLID_130_" x="107.1" y="307.2" style="fill:#FCEE21;" width="259" height="45.2"/>
		<path id="XMLID_129_" style="fill:#FFFFFF;stroke:#000000;stroke-width:4;stroke-miterlimit:10;" d="M30.8,362.5v-303
			c0-6.6,5.4-12,12-12h55.8c6.6,0,12,5.4,12,12v303c0,6.6-5.4,12-12,12H42.8C36.2,374.5,30.8,369.1,30.8,362.5z"/>
		<text id="XMLID_128_" transform="matrix(1 0 0 1 183.211 183.5976)" style="font-family:'ArialMT'; font-size:38.8837px;">donor</text>
		<text id="XMLID_127_" transform="matrix(1 0 0 1 212.8145 286.5502)" style="font-family:'ArialMT'; font-size:38.8837px;">on</text>
		<g id="XMLID_126_">
			<text id="XMLID_19_" transform="matrix(1 0 0 1 198.2324 232.3501)" style="font-family:'ArialMT'; font-size:38.8837px;">alex</text>
		</g>
		<g id="XMLID_125_">
			<text id="XMLID_18_" transform="matrix(1 0 0 1 198.2324 342.3725)" style="font-family:'ArialMT'; font-size:38.8837px;">6/08</text>
		</g>
		<path id="XMLID_124_" d="M95.9,356.1H45.6c-1.1,0-2-0.9-2-2V159.5c0-1.1,0.9-2,2-2h50.3c1.1,0,2,0.9,2,2v194.5
			C97.9,355.2,97,356.1,95.9,356.1z"/>
		<g id="XMLID_118_">
			
				<rect id="XMLID_123_" x="310.4" y="157.8" style="fill:#FCEE21;stroke:#000000;stroke-width:4;stroke-miterlimit:10;" width="32" height="31.7"/>
			
				<rect id="XMLID_122_" x="308.4" y="154.1" style="fill:#FCEE21;stroke:#000000;stroke-width:4;stroke-miterlimit:10;" width="36.1" height="14.1"/>
			
				<line id="XMLID_121_" style="fill:#FCEE21;stroke:#000000;stroke-width:4;stroke-miterlimit:10;" x1="326.4" y1="154.1" x2="326.4" y2="189.5"/>
			<path id="XMLID_120_" style="fill:#FCEE21;stroke:#000000;stroke-width:4;stroke-miterlimit:10;" d="M327.1,153
				c-1.3,1.4-9.2-3.8-12.3-6.8c-3.2-2.9-4.7-6.4-3.3-7.9c1.3-1.4,4.9-0.2,8.1,2.7S328.4,151.5,327.1,153z"/>
			<path id="XMLID_119_" style="fill:#FCEE21;stroke:#000000;stroke-width:4;stroke-miterlimit:10;" d="M326.6,153
				c1.3,1.4,9.2-3.8,12.3-6.8c3.2-2.9,4.7-6.4,3.3-7.9c-1.3-1.4-4.9-0.2-8.1,2.7S325.3,151.5,326.6,153z"/>
		</g>
		<g id="XMLID_115_">
			
				<circle id="XMLID_117_" style="fill:#FFFFFF;stroke:#000000;stroke-width:4;stroke-miterlimit:10;" cx="325.9" cy="275" r="25.6"/>
			
				<polyline id="XMLID_116_" style="fill:#FFFFFF;stroke:#000000;stroke-width:4;stroke-linecap:square;stroke-miterlimit:10;" points="
				324,260 324,276.4 334,276.7 			"/>
		</g>
		<rect id="XMLID_114_" x="51.5" y="252.9" style="fill:#FCEE21;" width="38.4" height="94.2"/>
		<g id="XMLID_102_">
			
				<line id="XMLID_113_" style="fill:none;stroke:#000000;stroke-width:3;stroke-miterlimit:10;" x1="43" y1="351.5" x2="70" y2="351.5"/>
			
				<line id="XMLID_112_" style="fill:none;stroke:#000000;stroke-width:3;stroke-miterlimit:10;" x1="43" y1="333.5" x2="70" y2="333.5"/>
			
				<line id="XMLID_111_" style="fill:none;stroke:#000000;stroke-width:3;stroke-miterlimit:10;" x1="43" y1="314.5" x2="70" y2="314.5"/>
			
				<line id="XMLID_110_" style="fill:none;stroke:#000000;stroke-width:3;stroke-miterlimit:10;" x1="43" y1="296.5" x2="70" y2="296.5"/>
			
				<line id="XMLID_109_" style="fill:none;stroke:#000000;stroke-width:3;stroke-miterlimit:10;" x1="43" y1="276.5" x2="70" y2="276.5"/>
			
				<line id="XMLID_108_" style="fill:none;stroke:#000000;stroke-width:3;stroke-miterlimit:10;" x1="43" y1="259.5" x2="70" y2="259.5"/>
			
				<line id="XMLID_107_" style="fill:none;stroke:#000000;stroke-width:3;stroke-miterlimit:10;" x1="43" y1="241.5" x2="70" y2="241.5"/>
			
				<line id="XMLID_106_" style="fill:none;stroke:#000000;stroke-width:3;stroke-miterlimit:10;" x1="43" y1="222.5" x2="70" y2="222.5"/>
			
				<line id="XMLID_105_" style="fill:none;stroke:#000000;stroke-width:3;stroke-miterlimit:10;" x1="43" y1="204.5" x2="70" y2="204.5"/>
			
				<line id="XMLID_104_" style="fill:none;stroke:#000000;stroke-width:3;stroke-miterlimit:10;" x1="43" y1="185.5" x2="70" y2="185.5"/>
			
				<line id="XMLID_103_" style="fill:none;stroke:#000000;stroke-width:3;stroke-miterlimit:10;" x1="43" y1="167.5" x2="70" y2="167.5"/>
		</g>
	</g>
	<path id="XMLID_20_" style="fill:#42210B;stroke:#000000;stroke-width:4;stroke-miterlimit:10;" d="M74.7,62.3"/>
	<path id="XMLID_26_" style="fill:#FFFFFF;stroke:#000000;stroke-width:4;stroke-miterlimit:10;" d="M378,127.3H75
		c-6.6,0-12-5.4-12-12V59.5c0-6.6,5.4-12,12-12h303c6.6,0,12,5.4,12,12v55.8C390,121.9,384.6,127.3,378,127.3z"/>
	<text id="XMLID_23_" transform="matrix(1 0 0 1 169.9541 104.2099)" style="font-family:'ArialMT'; font-size:63.6279px;">sugar</text>
	<circle id="XMLID_22_" style="fill:#FCEE21;stroke:#000000;stroke-width:4;stroke-miterlimit:10;" cx="71.9" cy="87.4" r="61.9"/>
	
		<rect id="XMLID_21_" x="37.4" y="52.9" style="fill:#FFFFFF;stroke:#000000;stroke-width:3;stroke-linecap:round;stroke-linejoin:round;stroke-miterlimit:10;" width="45.4" height="45.4"/>
	<linearGradient id="XMLID_2_" gradientUnits="userSpaceOnUse" x1="59.7465" y1="120.8669" x2="105.4791" y2="76.0181">
		<stop  offset="0" style="stop-color:#424242"/>
		<stop  offset="0.4124" style="stop-color:#FFFFFF"/>
	</linearGradient>
	
		<rect id="XMLID_3_" x="60.1" y="75.6" style="fill:url(#XMLID_2_);stroke:#000000;stroke-width:3;stroke-linejoin:round;stroke-miterlimit:10;" width="45.4" height="45.4"/>
	<polygon id="XMLID_6_" style="fill:#FFFFFF;stroke:#000000;stroke-width:3;stroke-linejoin:round;stroke-miterlimit:10;" points="
		82.5,52.7 105.4,75.5 59.5,75.5 37.4,53.1 	"/>
	<linearGradient id="XMLID_4_" gradientUnits="userSpaceOnUse" x1="39.708" y1="99.634" x2="64.5828" y2="67.0204">
		<stop  offset="0" style="stop-color:#424242"/>
		<stop  offset="0.4124" style="stop-color:#FFFFFF"/>
	</linearGradient>
	
		<polygon id="XMLID_27_" style="fill:url(#XMLID_4_);stroke:#000000;stroke-width:3;stroke-linejoin:round;stroke-miterlimit:10;" points="
		37.5,98.3 60.1,121 59.6,75.3 37.5,54.4 	"/>
</g>
</svg>
